<?xml version="1.0" standalone="no"?>
<!DOCTYPE svg PUBLIC "-//W3C//DTD SVG 20010904//EN"
 "http://www.w3.org/TR/2001/REC-SVG-20010904/DTD/svg10.dtd">
<svg version="1.0" xmlns="http://www.w3.org/2000/svg"
 width="1024.000000pt" height="1024.000000pt" viewBox="0 0 1024.000000 1024.000000"
 preserveAspectRatio="xMidYMid meet">

<g transform="translate(0.000000,1024.000000) scale(0.100000,-0.100000)"
fill="#000000" stroke="none">
<path d="M4810 10179 c-74 -5 -191 -16 -260 -24 -69 -8 -131 -15 -138 -15 -7
0 -12 -8 -13 -17 0 -16 -1 -16 -7 -2 -6 14 -24 13 -177 -16 -181 -34 -437 -94
-445 -104 -3 -3 -16 -7 -30 -9 -39 -4 -317 -98 -489 -165 -212 -82 -602 -282
-806 -412 -216 -138 -216 -137 -209 -155 4 -12 2 -12 -7 -3 -16 16 -177 -107
-469 -355 -32 -27 -33 -31 -20 -48 14 -17 14 -18 -2 -5 -16 12 -26 5 -95 -59
-172 -158 -399 -414 -555 -625 -37 -49 -72 -96 -78 -102 -29 -35 -208 -316
-280 -442 -124 -216 -329 -659 -315 -681 3 -6 2 -10 -4 -10 -8 0 -116 -312
-134 -385 -3 -11 -18 -69 -35 -130 -17 -60 -44 -177 -61 -260 -80 -395 -105
-683 -98 -1115 7 -408 36 -653 118 -1020 22 -96 43 -187 46 -202 3 -17 12 -28
22 -28 12 0 13 -2 3 -8 -10 -7 -5 -33 23 -121 57 -184 161 -467 175 -481 3 -3
6 -11 8 -19 14 -66 270 -564 285 -554 6 3 7 1 3 -5 -7 -12 49 -106 187 -311
151 -223 420 -557 440 -544 5 3 7 1 4 -4 -13 -21 428 -453 454 -445 5 1 8 -2
7 -7 -2 -6 67 -64 152 -131 252 -197 694 -481 721 -464 8 4 9 3 5 -5 -12 -19
550 -281 574 -266 4 3 10 1 12 -5 5 -17 456 -165 594 -195 10 -2 69 -15 129
-28 384 -86 787 -124 1200 -114 270 7 399 17 630 52 175 26 178 27 315 56 197
42 473 117 478 131 2 4 7 6 12 3 4 -3 79 21 166 53 483 178 902 403 1304 701
285 211 681 589 891 851 181 225 311 410 299 425 -8 10 -6 13 6 11 24 -2 185
266 302 501 101 201 197 421 188 430 -3 3 0 11 8 17 28 23 204 588 185 595 -6
2 -4 8 4 15 24 18 127 576 113 612 -3 8 -2 14 2 14 12 0 32 285 37 510 6 311
-31 792 -63 818 -11 8 -12 12 -3 12 15 0 15 -2 -30 230 -31 156 -68 313 -96
405 -83 272 -198 585 -214 585 -6 0 -7 5 -4 10 9 14 -205 445 -290 585 -231
381 -459 677 -761 985 -150 152 -163 163 -180 150 -18 -14 -18 -14 -5 3 12 15
12 19 -1 30 -9 7 -80 66 -159 132 -198 165 -278 226 -464 347 -168 110 -405
251 -405 241 0 -3 -6 0 -14 6 -25 21 -288 147 -431 206 -187 78 -538 196 -546
183 -4 -6 -8 -6 -11 2 -4 14 -129 47 -358 94 -236 49 -251 51 -261 35 -7 -11
-9 -11 -9 2 0 13 -28 19 -152 33 -315 35 -682 48 -691 24 -4 -10 -6 -10 -6 0
-1 13 -15 14 -221 1z m605 -199 c547 -34 1031 -142 1530 -342 807 -324 1508
-860 2052 -1567 330 -429 606 -966 772 -1496 271 -872 289 -1829 49 -2710
-269 -989 -833 -1855 -1632 -2504 -897 -728 -2009 -1107 -3166 -1078 -268 7
-383 16 -595 48 -1233 182 -2327 817 -3112 1806 -190 239 -365 515 -514 810
-262 520 -423 1051 -490 1623 -27 227 -36 676 -19 914 81 1140 560 2208 1358
3027 320 328 601 551 1002 797 148 91 517 271 695 341 669 261 1376 374 2070
331z"/>
<path d="M2050 7370 l0 -300 315 0 315 0 0 -1865 0 -1865 -300 0 -300 0 0
-300 0 -300 920 0 920 0 0 300 0 300 -295 0 -295 0 0 1442 c0 793 2 1439 4
1437 2 -2 309 -623 681 -1379 372 -756 683 -1385 691 -1397 l14 -23 299 0 298
0 688 1398 c378 768 690 1399 692 1401 1 2 3 -644 3 -1437 l0 -1442 -295 0
-295 0 0 -300 0 -300 1045 0 1045 0 0 300 0 300 -300 0 -300 0 0 1865 0 1865
310 0 310 0 0 300 0 300 -743 0 -742 0 -775 -1570 c-426 -863 -777 -1570 -781
-1570 -3 0 -354 706 -780 1570 l-774 1569 -787 1 -788 0 0 -300z"/>
</g>
</svg>
