<?xml version="1.0" standalone="no"?>
<!DOCTYPE svg PUBLIC "-//W3C//DTD SVG 20010904//EN"
 "http://www.w3.org/TR/2001/REC-SVG-20010904/DTD/svg10.dtd">
<svg version="1.0" xmlns="http://www.w3.org/2000/svg"
 width="1024.000000pt" height="1024.000000pt" viewBox="0 0 1024.000000 1024.000000"
 preserveAspectRatio="xMidYMid meet">

<g transform="translate(0.000000,1024.000000) scale(0.100000,-0.100000)"
fill="#000000" stroke="none">
<path d="M0 5120 l0 -5120 5120 0 5120 0 0 5120 0 5120 -5120 0 -5120 0 0
-5120z m5031 5058 c0 -10 2 -10 6 0 9 24 376 11 691 -24 124 -14 152 -20 152
-33 0 -13 2 -13 9 -2 10 16 25 14 261 -35 229 -47 354 -80 358 -94 3 -8 7 -8
11 -2 8 13 359 -105 546 -183 143 -59 406 -185 431 -206 8 -6 14 -9 14 -6 0
10 237 -131 405 -241 186 -121 266 -182 464 -347 79 -66 150 -125 159 -132 13
-11 13 -15 1 -30 -13 -17 -13 -17 5 -3 17 13 30 2 180 -150 302 -308 530 -604
761 -985 85 -140 299 -571 290 -585 -3 -5 -2 -10 4 -10 16 0 131 -313 214
-585 28 -92 65 -249 96 -405 45 -232 45 -230 30 -230 -9 0 -8 -4 3 -12 32 -26
69 -507 63 -818 -5 -225 -25 -510 -37 -510 -4 0 -5 -6 -2 -14 14 -36 -89 -594
-113 -612 -8 -7 -10 -13 -4 -15 19 -7 -157 -572 -185 -595 -8 -6 -11 -14 -8
-17 9 -9 -87 -229 -188 -430 -117 -235 -278 -503 -302 -501 -12 2 -14 -1 -6
-11 12 -15 -118 -200 -299 -425 -210 -262 -606 -640 -891 -851 -402 -298 -821
-523 -1304 -701 -87 -32 -162 -56 -166 -53 -5 3 -10 1 -12 -3 -5 -14 -281 -89
-478 -131 -137 -29 -140 -30 -315 -56 -231 -35 -360 -45 -630 -52 -413 -10
-816 28 -1200 114 -60 13 -119 26 -129 28 -138 30 -589 178 -594 195 -2 6 -8
8 -12 5 -24 -15 -586 247 -574 266 4 8 3 9 -5 5 -27 -17 -469 267 -721 464
-85 67 -154 125 -152 131 1 5 -2 8 -7 7 -26 -8 -467 424 -454 445 3 5 1 7 -4
4 -20 -13 -289 321 -440 544 -138 205 -194 299 -187 311 4 6 3 8 -3 5 -15 -10
-271 488 -285 554 -2 8 -5 16 -8 19 -14 14 -118 297 -175 481 -28 88 -33 114
-23 121 10 6 9 8 -3 8 -10 0 -19 11 -22 28 -3 15 -24 106 -46 202 -82 367
-111 612 -118 1020 -7 432 18 720 98 1115 17 83 44 200 61 260 17 61 32 119
35 130 18 73 126 385 134 385 6 0 7 4 4 10 -14 22 191 465 315 681 72 126 251
407 280 442 6 6 41 53 78 102 156 211 383 467 555 625 69 64 79 71 95 59 16
-13 16 -12 2 5 -16 21 -31 6 148 156 51 42 145 118 211 168 92 71 121 88 130
79 9 -9 11 -9 7 3 -7 18 -7 17 209 155 204 130 594 330 806 412 172 67 450
161 489 165 14 2 27 6 30 9 8 10 264 70 445 104 153 29 171 30 177 16 6 -14 7
-14 7 2 1 9 6 17 13 17 7 0 69 7 138 15 111 14 319 30 438 34 27 0 42 -3 43
-11z"/>
<path d="M4820 9979 c-650 -42 -1258 -206 -1845 -498 -229 -113 -342 -179
-560 -324 -488 -324 -980 -816 -1312 -1312 -473 -707 -754 -1521 -813 -2361
-17 -238 -8 -687 19 -914 94 -805 383 -1556 857 -2237 683 -980 1780 -1703
2950 -1947 336 -69 548 -94 904 -103 730 -18 1431 122 2090 417 1229 550 2186
1596 2615 2860 285 841 338 1721 154 2590 -123 583 -357 1140 -694 1655 -341
522 -832 1016 -1350 1362 -382 255 -768 442 -1210 586 -567 186 -1199 265
-1805 226z m-421 -3879 c426 -864 777 -1570 780 -1570 4 0 355 707 781 1570
l775 1570 742 0 743 0 0 -300 0 -300 -310 0 -310 0 0 -1865 0 -1865 300 0 300
0 0 -300 0 -300 -1045 0 -1045 0 0 300 0 300 295 0 295 0 0 1442 c0 793 -2
1439 -3 1437 -2 -2 -314 -633 -692 -1401 l-688 -1398 -298 0 -299 0 -14 23
c-8 12 -319 641 -691 1397 -372 756 -679 1377 -681 1379 -2 2 -4 -644 -4
-1437 l0 -1442 295 0 295 0 0 -300 0 -300 -920 0 -920 0 0 300 0 300 300 0
300 0 0 1865 0 1865 -315 0 -315 0 0 300 0 300 788 0 787 -1 774 -1569z"/>
</g>
</svg>
